# xmcd
#
# Track frame offsets: 
#        150
#        8975
#        21109
#        53676
#        77200
#        102217
#        110705
#        134302
#        144425
#        170898
#        203893
#        215883
#        242655
#        246781
#
# Disc length: 3356 seconds
#
# Revision: 0
# Processed by: cddbd v1.5.2PL0 Copyright (c) Steve Scherf et al.
# Submitted via: ExactAudioCopy v0.99pb3
#
DISCID=ca0d1a0e
DTITLE=Jen Kearney and the Lost Onion - The Year of the Ox
DYEAR=2009
DGENRE=Soul
TTITLE0=Born
TTITLE1=Abandoned
TTITLE2=To The Moon
TTITLE3=Succotash Blue
TTITLE4=Bossa Nova Stereo
TTITLE5=Lunar Interlude
TTITLE6=Prime Meridian
TTITLE7=Trudge
TTITLE8=Gentle and Precise
TTITLE9=Year of the Ox
TTITLE10=One in the Same
TTITLE11=Oxen Free
TTITLE12=Across Reprise
TTITLE13=Reprise
EXTD=
EXTT0=
EXTT1=
EXTT2=
EXTT3=
EXTT4=
EXTT5=
EXTT6=
EXTT7=
EXTT8=
EXTT9=
EXTT10=
EXTT11=
EXTT12=
EXTT13=
PLAYORDER=
